<?xml version="1.0" encoding="utf-8"?>
<!-- Generator: Adobe Illustrator 19.2.1, SVG Export Plug-In . SVG Version: 6.00 Build 0)  -->
<svg version="1.1" id="Layer_1" xmlns="http://www.w3.org/2000/svg" xmlns:xlink="http://www.w3.org/1999/xlink" x="0px" y="0px"
	 width="864px" height="864px" viewBox="0 0 864 864" enable-background="new 0 0 864 864" xml:space="preserve">
<g>
	<path d="M358.9117,773.3989c-1.7234,1.5339-3.9624,2.9705-6.287,3.3334c43.5364,40.228,101.6273,62.616,160.6133,64.9568
		c34.7065,1.3773,69.5115-3.6644,102.1634-15.6364c7.6406-2.8015,15.1547-5.9747,22.4844-9.5117
		c4.2975-2.0737,13.2302-4.8154,16.2893-8.612c1.0607-1.3166,0.8271-2.4223,1.4927-4.0944
		c1.3696-3.4404,0.2047-3.0795,4.1698-5.5954c2.8235-1.7915,5.5827-3.6863,8.3632-5.5432c1.5102,3.2307,0.5403,6.7413-1.6852,9.3698
		c3.192-1.0869,7.1415-0.7392,9.5216,1.8818c-2.0859,1.3936-4.1586,2.8093-6.2587,4.1814
		c-1.4708,0.9609-3.1934,2.5218-4.8609,3.0742c-3.4965,1.1584-2.3952-0.0246-5.8542-0.3094
		c-7.7504-0.6382-16.8176,6.8969-24.0901,10.2567c-23.2173,10.7263-48.171,17.8576-73.5111,21.2678
		c-47.8947,6.4456-97.7555,0.3538-142.1685-18.974c-25.1787-10.9574-48.4267-25.9351-68.6404-44.5208
		c-0.2106,2.2612-1.2448,4.7837-2.7099,6.5303c-0.5039-5.3635-1.6591-10.6049-4.2529-15.3783
		C348.2954,772.5151,353.7198,773.607,358.9117,773.3989C357.2894,774.8428,356.4159,773.499,358.9117,773.3989z"/>
</g>
</svg>
